<svg xmlns="http://www.w3.org/2000/svg" xmlns:xlink="http://www.w3.org/1999/xlink" width="918" zoomAndPan="magnify" viewBox="0 0 688.5 419.999985" height="560" preserveAspectRatio="xMidYMid meet" version="1.0"><defs><g/><clipPath id="4cb9d3164c"><path d="M 3.222656 0.152344 L 688 0.152344 L 688 419.285156 L 3.222656 419.285156 Z M 3.222656 0.152344 " clip-rule="nonzero"/></clipPath><clipPath id="92b5639700"><path d="M 73.671875 0.152344 L 617.386719 0.152344 C 656.296875 0.152344 687.835938 31.695312 687.835938 70.601562 L 687.835938 348.835938 C 687.835938 387.742188 656.296875 419.285156 617.386719 419.285156 L 73.671875 419.285156 C 34.765625 419.285156 3.222656 387.742188 3.222656 348.835938 L 3.222656 70.601562 C 3.222656 31.695312 34.765625 0.152344 73.671875 0.152344 Z M 73.671875 0.152344 " clip-rule="nonzero"/></clipPath><clipPath id="d46e104558"><path d="M 0.222656 0.152344 L 685 0.152344 L 685 419.285156 L 0.222656 419.285156 Z M 0.222656 0.152344 " clip-rule="nonzero"/></clipPath><clipPath id="343a582886"><path d="M 70.671875 0.152344 L 614.386719 0.152344 C 653.296875 0.152344 684.835938 31.695312 684.835938 70.601562 L 684.835938 348.835938 C 684.835938 387.742188 653.296875 419.285156 614.386719 419.285156 L 70.671875 419.285156 C 31.765625 419.285156 0.222656 387.742188 0.222656 348.835938 L 0.222656 70.601562 C 0.222656 31.695312 31.765625 0.152344 70.671875 0.152344 Z M 70.671875 0.152344 " clip-rule="nonzero"/></clipPath><clipPath id="e56c590d7f"><rect x="0" width="685" y="0" height="420"/></clipPath><clipPath id="0e6a0ae115"><path d="M 415 51.175781 L 630 51.175781 L 630 366 L 415 366 Z M 415 51.175781 " clip-rule="nonzero"/></clipPath></defs><g clip-path="url(#4cb9d3164c)"><g clip-path="url(#92b5639700)"><g transform="matrix(1, 0, 0, 1, 3, 0.000000000000006911)"><g clip-path="url(#e56c590d7f)"><g clip-path="url(#d46e104558)"><g clip-path="url(#343a582886)"><path fill="#f7ebeb" d="M 0.222656 0.152344 L 684.585938 0.152344 L 684.585938 419.285156 L 0.222656 419.285156 Z M 0.222656 0.152344 " fill-opacity="1" fill-rule="nonzero"/></g></g></g></g></g></g><g clip-path="url(#0e6a0ae115)"><path fill="#bf0007" d="M 603.238281 187.460938 C 603.238281 187.460938 603.09375 187.316406 602.878906 187.027344 C 602.152344 186.230469 601.503906 185.507812 600.777344 184.710938 C 587.894531 170.308594 529.558594 125.433594 522.46875 51.25 C 522.46875 51.25 515.882812 98.222656 441.621094 187.460938 C 424.46875 207.148438 414.265625 233.203125 415.207031 261.71875 C 417.015625 317.304688 461.816406 362.757812 517.402344 365.363281 C 578.992188 368.183594 629.875 319.113281 629.875 258.101562 C 629.875 231.03125 619.8125 206.351562 603.238281 187.460938 Z M 603.238281 187.460938 " fill-opacity="1" fill-rule="nonzero"/></g><path fill="#ffffff" d="M 523.261719 322.949219 C 521.886719 322.949219 520.875 321.9375 520.730469 320.632812 L 510.523438 203.960938 L 496.917969 284.878906 C 496.699219 286.039062 495.6875 286.976562 494.53125 286.976562 C 493.371094 287.050781 492.285156 286.253906 491.996094 285.097656 L 483.023438 249.34375 L 475.785156 266.640625 C 475.421875 267.582031 474.480469 268.160156 473.46875 268.160156 L 449.078125 268.160156 C 447.703125 268.160156 446.542969 267.003906 446.542969 265.628906 C 446.542969 264.253906 447.703125 263.09375 449.078125 263.09375 L 471.730469 263.09375 L 481.285156 240.367188 C 481.71875 239.355469 482.734375 238.777344 483.816406 238.847656 C 484.902344 238.921875 485.84375 239.714844 486.0625 240.730469 L 493.878906 272.070312 L 508.714844 183.550781 C 508.933594 182.320312 510.019531 181.382812 511.320312 181.453125 C 512.625 181.527344 513.636719 182.464844 513.710938 183.769531 L 523.625 296.675781 L 532.527344 226.253906 C 532.671875 225.023438 533.683594 224.082031 534.914062 224.011719 C 536.144531 223.9375 537.230469 224.734375 537.519531 225.964844 L 548.378906 269.824219 L 554.023438 229.582031 C 554.167969 228.351562 555.179688 227.484375 556.410156 227.414062 C 557.640625 227.339844 558.726562 228.207031 559.015625 229.367188 L 566.980469 264.6875 L 595.785156 264.6875 C 597.160156 264.6875 598.316406 265.84375 598.316406 267.21875 C 598.316406 268.59375 597.160156 269.753906 595.785156 269.753906 L 564.953125 269.753906 C 563.792969 269.753906 562.707031 268.957031 562.492188 267.796875 L 557.136719 243.988281 L 551.5625 283.503906 C 551.417969 284.734375 550.40625 285.601562 549.175781 285.675781 C 547.945312 285.746094 546.859375 284.953125 546.570312 283.722656 L 535.855469 240.296875 L 525.722656 320.632812 C 525.652344 322.007812 524.566406 322.949219 523.261719 322.949219 Z M 523.261719 322.949219 " fill-opacity="1" fill-rule="nonzero"/><g fill="#bf0007" fill-opacity="1"><g transform="translate(150.681143, 188.733299)"><g><path d="M 4.5625 0 Z M 35.6875 -58.15625 C 39.945312 -58.15625 45.039062 -58.003906 50.96875 -57.703125 C 56.894531 -57.398438 61.078125 -57.054688 63.515625 -56.671875 L 63.515625 0 L 35.125 0 C 27.59375 0 21.660156 -0.796875 17.328125 -2.390625 C 12.992188 -3.992188 9.78125 -6.90625 7.6875 -11.125 C 5.601562 -15.34375 4.5625 -21.476562 4.5625 -29.53125 C 4.5625 -37.207031 5.546875 -43.078125 7.515625 -47.140625 C 9.492188 -51.210938 12.6875 -54.066406 17.09375 -55.703125 C 21.507812 -57.335938 27.707031 -58.15625 35.6875 -58.15625 Z M 19.84375 -29.53125 C 19.84375 -25.269531 20.390625 -22.019531 21.484375 -19.78125 C 22.585938 -17.539062 24.28125 -16 26.5625 -15.15625 C 28.84375 -14.320312 31.960938 -13.90625 35.921875 -13.90625 L 48.234375 -13.90625 L 48.234375 -43.671875 C 44.429688 -44.054688 40.441406 -44.25 36.265625 -44.25 C 32.078125 -44.25 28.820312 -43.828125 26.5 -42.984375 C 24.1875 -42.148438 22.5 -40.6875 21.4375 -38.59375 C 20.375 -36.507812 19.84375 -33.488281 19.84375 -29.53125 Z M 22.46875 -81.875 L 34.21875 -81.875 L 34.21875 -67.625 L 22.46875 -67.625 Z M 39.796875 -81.875 L 51.546875 -81.875 L 51.546875 -67.625 L 39.796875 -67.625 Z M 39.796875 -81.875 "/></g></g></g><g fill="#bf0007" fill-opacity="1"><g transform="translate(219.89289, 188.733299)"><g><path d="M 50.75 0 L 31.921875 0 C 31.847656 8.96875 30.234375 15.921875 27.078125 20.859375 C 23.921875 25.804688 19.191406 28.28125 12.890625 28.28125 C 11.898438 28.28125 9.125 28.128906 4.5625 27.828125 L 4.5625 14.140625 L 8.4375 14.375 C 11.175781 14.375 13.226562 13.289062 14.59375 11.125 C 15.96875 8.957031 16.65625 5.894531 16.65625 1.9375 L 16.65625 -57.015625 L 31.921875 -57.015625 L 31.921875 -13.90625 L 50.75 -13.90625 Z M 50.75 0 "/></g></g></g><g fill="#bf0007" fill-opacity="1"><g transform="translate(270.636105, 188.733299)"><g><path d="M 92.703125 -13.90625 L 92.703125 0 L 0 0 L 0 -13.90625 L 9.578125 -13.90625 L 9.578125 -79.828125 L 24.859375 -79.828125 L 24.859375 -38.765625 C 28.273438 -43.023438 31.367188 -46.484375 34.140625 -49.140625 C 36.921875 -51.804688 40.171875 -53.972656 43.890625 -55.640625 C 47.617188 -57.316406 51.914062 -58.15625 56.78125 -58.15625 C 66.363281 -58.15625 73.148438 -55.207031 77.140625 -49.3125 C 81.128906 -43.425781 83.125 -36.53125 83.125 -28.625 L 83.125 -13.90625 Z M 53.359375 -44.25 C 48.347656 -44.25 43.710938 -42.191406 39.453125 -38.078125 C 35.191406 -33.972656 31.691406 -29.429688 28.953125 -24.453125 C 26.222656 -19.472656 24.859375 -16.300781 24.859375 -14.9375 L 24.859375 -13.90625 L 67.84375 -13.90625 L 67.84375 -25.65625 C 67.84375 -30.90625 66.566406 -35.316406 64.015625 -38.890625 C 61.472656 -42.460938 57.921875 -44.25 53.359375 -44.25 Z M 53.359375 -44.25 "/></g></g></g><g fill="#bf0007" fill-opacity="1"><g transform="translate(363.342241, 188.733299)"><g><path d="M 0 0 Z M 63.515625 -55.421875 L 63.515625 0 L 0 0 L 0 -13.90625 L 12.203125 -13.90625 C 10.910156 -18.550781 10.265625 -23.796875 10.265625 -29.640625 C 10.265625 -36.566406 11.347656 -42.003906 13.515625 -45.953125 C 15.679688 -49.910156 18.96875 -52.722656 23.375 -54.390625 C 27.78125 -56.066406 33.597656 -56.90625 40.828125 -56.90625 C 47.210938 -56.90625 52.796875 -56.640625 57.578125 -56.109375 Z M 25.765625 -26.796875 C 25.765625 -23.910156 25.953125 -21.570312 26.328125 -19.78125 C 26.710938 -18 27.25 -16.039062 27.9375 -13.90625 L 48.234375 -13.90625 L 48.234375 -42.984375 C 44.890625 -43.210938 42.265625 -43.328125 40.359375 -43.328125 C 36.253906 -43.328125 33.195312 -42.867188 31.1875 -41.953125 C 29.175781 -41.046875 27.769531 -39.453125 26.96875 -37.171875 C 26.164062 -34.890625 25.765625 -31.429688 25.765625 -26.796875 Z M 23.484375 -81.875 L 35.234375 -81.875 L 35.234375 -67.625 L 23.484375 -67.625 Z M 40.8125 -81.875 L 52.5625 -81.875 L 52.5625 -67.625 L 40.8125 -67.625 Z M 40.8125 -81.875 "/></g></g></g><g fill="#101727" fill-opacity="1"><g transform="translate(181.982629, 313.892401)"><g><path d="M 4.5625 0 Z M 35.6875 -58.15625 C 39.945312 -58.15625 45.039062 -58.003906 50.96875 -57.703125 C 56.894531 -57.398438 61.078125 -57.054688 63.515625 -56.671875 L 63.515625 0 L 35.125 0 C 27.59375 0 21.660156 -0.796875 17.328125 -2.390625 C 12.992188 -3.992188 9.78125 -6.90625 7.6875 -11.125 C 5.601562 -15.34375 4.5625 -21.476562 4.5625 -29.53125 C 4.5625 -37.207031 5.546875 -43.078125 7.515625 -47.140625 C 9.492188 -51.210938 12.6875 -54.066406 17.09375 -55.703125 C 21.507812 -57.335938 27.707031 -58.15625 35.6875 -58.15625 Z M 19.84375 -29.53125 C 19.84375 -25.269531 20.390625 -22.019531 21.484375 -19.78125 C 22.585938 -17.539062 24.28125 -16 26.5625 -15.15625 C 28.84375 -14.320312 31.960938 -13.90625 35.921875 -13.90625 L 48.234375 -13.90625 L 48.234375 -43.671875 C 44.429688 -44.054688 40.441406 -44.25 36.265625 -44.25 C 32.078125 -44.25 28.820312 -43.828125 26.5 -42.984375 C 24.1875 -42.148438 22.5 -40.6875 21.4375 -38.59375 C 20.375 -36.507812 19.84375 -33.488281 19.84375 -29.53125 Z M 22.46875 -81.875 L 34.21875 -81.875 L 34.21875 -67.625 L 22.46875 -67.625 Z M 39.796875 -81.875 L 51.546875 -81.875 L 51.546875 -67.625 L 39.796875 -67.625 Z M 39.796875 -81.875 "/></g></g></g><g fill="#101727" fill-opacity="1"><g transform="translate(251.194376, 313.892401)"><g><path d="M 35.578125 -13.90625 L 35.578125 0 L 9.125 0 L 9.125 -79.828125 L 24.40625 -79.828125 L 24.40625 -13.90625 Z M 35.578125 -13.90625 "/></g></g></g><g fill="#101727" fill-opacity="1"><g transform="translate(286.771634, 313.892401)"><g><path d="M 0 0 Z M 49.375 -13.90625 L 49.375 0 L 0 0 L 0 -13.90625 L 16.984375 -13.90625 L 16.984375 -57.015625 L 32.265625 -57.015625 L 32.265625 -13.90625 Z M 9.921875 9.125 L 21.671875 9.125 L 21.671875 23.375 L 9.921875 23.375 Z M 27.25 9.125 L 39 9.125 L 39 23.375 L 27.25 23.375 Z M 27.25 9.125 "/></g></g></g><g fill="#101727" fill-opacity="1"><g transform="translate(336.146488, 313.892401)"><g><path d="M 37.75 -58.15625 C 44.894531 -58.15625 50.082031 -56.648438 53.3125 -53.640625 C 56.539062 -50.640625 58.191406 -45.875 58.265625 -39.34375 L 58.265625 0 L 0 0 L 0 -13.90625 L 42.984375 -13.90625 L 42.984375 -35.34375 C 42.984375 -38.613281 42.28125 -41.066406 40.875 -42.703125 C 39.46875 -44.335938 37.054688 -45.15625 33.640625 -45.15625 C 26.640625 -44.925781 20.554688 -44.695312 15.390625 -44.46875 L 9.578125 -44.25 L 9.125 -54.390625 C 13.070312 -55.453125 17.859375 -56.34375 23.484375 -57.0625 C 29.109375 -57.789062 33.863281 -58.15625 37.75 -58.15625 Z M 37.75 -58.15625 "/></g></g></g></svg>