<svg xmlns="http://www.w3.org/2000/svg" xmlns:xlink="http://www.w3.org/1999/xlink" width="970" zoomAndPan="magnify" viewBox="0 0 727.5 419.999985" height="560" preserveAspectRatio="xMidYMid meet" version="1.0"><defs><g/><clipPath id="cadd28609b"><path d="M 0 0.144531 L 685 0.144531 L 685 419.292969 L 0 419.292969 Z M 0 0.144531 " clip-rule="nonzero"/></clipPath><clipPath id="adb837ae90"><path d="M 70.453125 0.144531 L 614.1875 0.144531 C 653.097656 0.144531 684.640625 31.6875 684.640625 70.597656 L 684.640625 348.839844 C 684.640625 387.75 653.097656 419.292969 614.1875 419.292969 L 70.453125 419.292969 C 31.542969 419.292969 0 387.75 0 348.839844 L 0 70.597656 C 0 31.6875 31.542969 0.144531 70.453125 0.144531 Z M 70.453125 0.144531 " clip-rule="nonzero"/></clipPath><clipPath id="8d5679d147"><path d="M 0 0.144531 L 684.730469 0.144531 L 684.730469 419.292969 L 0 419.292969 Z M 0 0.144531 " clip-rule="nonzero"/></clipPath><clipPath id="487541f142"><path d="M 70.453125 0.144531 L 614.1875 0.144531 C 653.097656 0.144531 684.640625 31.6875 684.640625 70.597656 L 684.640625 348.839844 C 684.640625 387.75 653.097656 419.292969 614.1875 419.292969 L 70.453125 419.292969 C 31.542969 419.292969 0 387.75 0 348.839844 L 0 70.597656 C 0 31.6875 31.542969 0.144531 70.453125 0.144531 Z M 70.453125 0.144531 " clip-rule="nonzero"/></clipPath><clipPath id="360216350f"><rect x="0" width="685" y="0" height="420"/></clipPath><clipPath id="263c6b3e56"><path d="M 20 51.171875 L 235 51.171875 L 235 366 L 20 366 Z M 20 51.171875 " clip-rule="nonzero"/></clipPath></defs><g clip-path="url(#cadd28609b)"><g clip-path="url(#adb837ae90)"><g transform="matrix(1, 0, 0, 1, 0, 0.000000000000001249)"><g clip-path="url(#360216350f)"><g clip-path="url(#8d5679d147)"><g clip-path="url(#487541f142)"><path fill="#f7ebeb" d="M 0 0.144531 L 684.390625 0.144531 L 684.390625 419.292969 L 0 419.292969 Z M 0 0.144531 " fill-opacity="1" fill-rule="nonzero"/></g></g></g></g></g></g><g clip-path="url(#263c6b3e56)"><path fill="#bf0007" d="M 208.304688 187.460938 C 208.304688 187.460938 208.160156 187.316406 207.945312 187.027344 C 207.21875 186.230469 206.570312 185.503906 205.84375 184.710938 C 192.960938 170.304688 134.625 125.429688 127.53125 51.242188 C 127.53125 51.242188 120.945312 98.214844 46.683594 187.460938 C 29.53125 207.148438 19.324219 233.203125 20.265625 261.722656 C 22.074219 317.308594 66.878906 362.761719 122.464844 365.367188 C 184.058594 368.191406 234.941406 319.117188 234.941406 258.101562 C 234.941406 231.03125 224.878906 206.351562 208.304688 187.460938 Z M 208.304688 187.460938 " fill-opacity="1" fill-rule="nonzero"/></g><path fill="#ffffff" d="M 128.328125 322.953125 C 126.953125 322.953125 125.9375 321.941406 125.792969 320.636719 L 115.589844 203.960938 L 101.980469 284.882812 C 101.765625 286.039062 100.75 286.980469 99.59375 286.980469 C 98.433594 287.054688 97.347656 286.257812 97.058594 285.097656 L 88.085938 249.34375 L 80.847656 266.644531 C 80.484375 267.582031 79.542969 268.164062 78.53125 268.164062 L 54.136719 268.164062 C 52.761719 268.164062 51.605469 267.003906 51.605469 265.628906 C 51.605469 264.253906 52.761719 263.097656 54.136719 263.097656 L 76.792969 263.097656 L 86.347656 240.367188 C 86.78125 239.355469 87.792969 238.777344 88.878906 238.847656 C 89.964844 238.921875 90.90625 239.71875 91.125 240.730469 L 98.941406 272.070312 L 113.777344 183.550781 C 113.996094 182.320312 115.082031 181.378906 116.382812 181.453125 C 117.6875 181.523438 118.699219 182.464844 118.773438 183.769531 L 128.6875 296.679688 L 137.589844 226.253906 C 137.734375 225.023438 138.75 224.082031 139.980469 224.011719 C 141.210938 223.9375 142.296875 224.734375 142.585938 225.964844 L 153.441406 269.828125 L 159.089844 229.585938 C 159.234375 228.355469 160.246094 227.484375 161.476562 227.414062 C 162.707031 227.339844 163.792969 228.210938 164.082031 229.367188 L 172.042969 264.6875 L 200.851562 264.6875 C 202.226562 264.6875 203.382812 265.847656 203.382812 267.222656 C 203.382812 268.597656 202.226562 269.753906 200.851562 269.753906 L 170.015625 269.753906 C 168.859375 269.753906 167.773438 268.957031 167.554688 267.800781 L 162.199219 243.988281 L 156.628906 283.507812 C 156.484375 284.738281 155.46875 285.605469 154.238281 285.679688 C 153.007812 285.75 151.921875 284.953125 151.632812 283.722656 L 140.921875 240.296875 L 130.789062 320.636719 C 130.714844 322.011719 129.628906 322.953125 128.328125 322.953125 Z M 128.328125 322.953125 " fill-opacity="1" fill-rule="nonzero"/><g fill="#bf0007" fill-opacity="1"><g transform="translate(228.235939, 199.974745)"><g><path d="M 42.1875 1.03125 C 41.425781 1.257812 39.753906 1.375 37.171875 1.375 C 29.265625 1.375 22.972656 -0.03125 18.296875 -2.84375 C 13.628906 -5.65625 10.25 -9.953125 8.15625 -15.734375 C 6.0625 -21.515625 5.015625 -29.078125 5.015625 -38.421875 C 5.015625 -47.773438 6.0625 -55.394531 8.15625 -61.28125 C 10.25 -67.175781 13.648438 -71.585938 18.359375 -74.515625 C 23.066406 -77.441406 29.335938 -78.90625 37.171875 -78.90625 C 45.003906 -78.90625 51.273438 -77.441406 55.984375 -74.515625 C 60.703125 -71.585938 64.101562 -67.160156 66.1875 -61.234375 C 68.28125 -55.304688 69.328125 -47.664062 69.328125 -38.3125 C 69.328125 -21.4375 65.335938 -10.070312 57.359375 -4.21875 L 66.828125 11.0625 L 52.453125 17.78125 Z M 37.171875 -12.3125 C 41.273438 -12.3125 44.484375 -13.164062 46.796875 -14.875 C 49.117188 -16.59375 50.753906 -19.3125 51.703125 -23.03125 C 52.660156 -26.757812 53.140625 -31.851562 53.140625 -38.3125 C 53.140625 -44.769531 52.644531 -49.9375 51.65625 -53.8125 C 50.664062 -57.695312 49.007812 -60.566406 46.6875 -62.421875 C 44.375 -64.285156 41.203125 -65.21875 37.171875 -65.21875 C 33.140625 -65.21875 29.960938 -64.285156 27.640625 -62.421875 C 25.328125 -60.566406 23.675781 -57.695312 22.6875 -53.8125 C 21.695312 -49.9375 21.203125 -44.769531 21.203125 -38.3125 C 21.203125 -32.3125 21.617188 -27.46875 22.453125 -23.78125 C 23.296875 -20.09375 24.875 -17.257812 27.1875 -15.28125 C 29.507812 -13.300781 32.835938 -12.3125 37.171875 -12.3125 Z M 37.171875 -12.3125 "/></g></g></g><g fill="#bf0007" fill-opacity="1"><g transform="translate(301.441257, 199.974745)"><g><path d="M 47.890625 -14.03125 L 20.75 -14.03125 L 17.671875 0 L 1.9375 0 L 19.390625 -77.546875 L 49.265625 -77.546875 L 66.703125 0 L 50.96875 0 Z M 37.0625 -64.546875 L 31.59375 -64.546875 L 23.71875 -27.703125 L 44.921875 -27.703125 Z M 37.0625 -64.546875 "/></g></g></g><g fill="#bf0007" fill-opacity="1"><g transform="translate(365.866305, 199.974745)"><g><path d="M 22.234375 -63.625 L 1.484375 -63.625 L 1.484375 -77.546875 L 58.5 -77.546875 L 58.5 -63.625 L 37.96875 -63.625 L 37.96875 0 L 22.234375 0 Z M 22.234375 -63.625 "/></g></g></g><g fill="#bf0007" fill-opacity="1"><g transform="translate(425.844547, 199.974745)"><g><path d="M 8.4375 -77.546875 L 38.546875 -77.546875 C 56.785156 -77.546875 65.90625 -69.03125 65.90625 -52 C 65.90625 -41.882812 62.101562 -34.429688 54.5 -29.640625 L 65.5625 0 L 48.34375 0 L 39.34375 -26 L 24.171875 -26 L 24.171875 0 L 8.4375 0 Z M 38.765625 -39.453125 C 42.335938 -39.453125 45.070312 -40.570312 46.96875 -42.8125 C 48.875 -45.0625 49.828125 -48.085938 49.828125 -51.890625 C 49.828125 -55.679688 48.835938 -58.660156 46.859375 -60.828125 C 44.890625 -62.992188 42.117188 -64.078125 38.546875 -64.078125 L 24.171875 -64.078125 L 24.171875 -39.453125 Z M 38.765625 -39.453125 "/></g></g></g><g fill="#bf0007" fill-opacity="1"><g transform="translate(495.629071, 199.974745)"><g><path d="M 47.890625 -14.03125 L 20.75 -14.03125 L 17.671875 0 L 1.9375 0 L 19.390625 -77.546875 L 49.265625 -77.546875 L 66.703125 0 L 50.96875 0 Z M 37.0625 -64.546875 L 31.59375 -64.546875 L 23.71875 -27.703125 L 44.921875 -27.703125 Z M 37.0625 -64.546875 "/></g></g></g><g fill="#bf0007" fill-opacity="1"><g transform="translate(564.273403, 199.974745)"><g><path d="M 68.765625 -77.546875 L 68.765625 0 L 53.03125 0 L 53.03125 -32.15625 L 24.171875 -32.15625 L 24.171875 0 L 8.4375 0 L 8.4375 -77.546875 L 24.171875 -77.546875 L 24.171875 -45.84375 L 53.03125 -45.84375 L 53.03125 -77.546875 Z M 68.765625 -77.546875 "/></g></g></g><g fill="#101727" fill-opacity="1"><g transform="translate(261.470908, 301.904685)"><g><path d="M 68.765625 -77.546875 L 68.765625 0 L 53.03125 0 L 53.03125 -32.15625 L 24.171875 -32.15625 L 24.171875 0 L 8.4375 0 L 8.4375 -77.546875 L 24.171875 -77.546875 L 24.171875 -45.84375 L 53.03125 -45.84375 L 53.03125 -77.546875 Z M 68.765625 -77.546875 "/></g></g></g><g fill="#101727" fill-opacity="1"><g transform="translate(338.667242, 301.904685)"><g><path d="M 47.890625 -14.03125 L 20.75 -14.03125 L 17.671875 0 L 1.9375 0 L 19.390625 -77.546875 L 49.265625 -77.546875 L 66.703125 0 L 50.96875 0 Z M 37.0625 -64.546875 L 31.59375 -64.546875 L 23.71875 -27.703125 L 44.921875 -27.703125 Z M 37.0625 -64.546875 "/></g></g></g><g fill="#101727" fill-opacity="1"><g transform="translate(401.267743, 301.904685)"><g><path d="M 23.953125 -31.359375 L 0 -77.546875 L 17.453125 -77.546875 L 31.703125 -46.640625 L 45.953125 -77.546875 L 63.40625 -77.546875 L 39.6875 -31.359375 L 39.6875 0 L 23.953125 0 Z M 23.953125 -31.359375 "/></g></g></g><g fill="#101727" fill-opacity="1"><g transform="translate(458.737024, 301.904685)"><g><path d="M 47.890625 -14.03125 L 20.75 -14.03125 L 17.671875 0 L 1.9375 0 L 19.390625 -77.546875 L 49.265625 -77.546875 L 66.703125 0 L 50.96875 0 Z M 37.0625 -64.546875 L 31.59375 -64.546875 L 23.71875 -27.703125 L 44.921875 -27.703125 Z M 37.0625 -64.546875 "/></g></g></g><g fill="#101727" fill-opacity="1"><g transform="translate(523.162073, 301.904685)"><g><path d="M 22.234375 -63.625 L 1.484375 -63.625 L 1.484375 -77.546875 L 58.5 -77.546875 L 58.5 -63.625 L 37.96875 -63.625 L 37.96875 0 L 22.234375 0 Z M 22.234375 -63.625 "/></g></g></g><g fill="#000000" fill-opacity="1"><g transform="translate(583.140445, 301.904685)"><g/></g></g></svg>